<svg width="200" height="200" viewBox="0 0 200 200" xmlns="http://www.w3.org/2000/svg">
  <!-- Background Circle -->
  <circle cx="100" cy="100" r="90" fill="#1E1E2E" />
  
  <!-- Outer Ring - Quantum Effect -->
  <circle cx="100" cy="100" r="85" fill="none" stroke="#8A2BE2" stroke-width="2" stroke-dasharray="10,5" />
  
  <!-- C Letter -->
  <path d="M70 70 Q50 100 70 130 L80 120 Q65 100 80 80 L70 70Z" fill="#00FFFF" />
  
  <!-- L Letter -->
  <path d="M90 70 L90 130 L120 130 L120 120 L100 120 L100 70 Z" fill="#FF00FF" />
  
  <!-- X Letter -->
  <path d="M130 70 L150 130 L140 130 L125 85 L110 130 L100 130 L120 70 Z" fill="#00FFFF" />
  
  <!-- Quantum Particle Effects -->
  <circle cx="65" cy="110" r="3" fill="#FF00FF" />
  <circle cx="110" cy="75" r="3" fill="#00FFFF" />
  <circle cx="145" cy="90" r="3" fill="#FF00FF" />
  <circle cx="135" cy="115" r="2" fill="#00FFFF" />
  <circle cx="95" cy="125" r="2" fill="#FF00FF" />
  <circle cx="80" cy="85" r="2" fill="#00FFFF" />
  
  <!-- Encryption Lines -->
  <line x1="50" y1="100" x2="150" y2="100" stroke="#8A2BE2" stroke-width="1" stroke-dasharray="3,3" />
  <line x1="100" y1="50" x2="100" y2="150" stroke="#8A2BE2" stroke-width="1" stroke-dasharray="3,3" />
  <line x1="70" y1="70" x2="130" y2="130" stroke="#8A2BE2" stroke-width="1" stroke-dasharray="3,3" />
  <line x1="130" y1="70" x2="70" y2="130" stroke="#8A2BE2" stroke-width="1" stroke-dasharray="3,3" />
  
  <!-- Center Lock Symbol -->
  <rect x="95" y="90" width="10" height="15" rx="2" fill="#FFFFFF" />
  <rect x="90" y="95" width="20" height="10" rx="2" fill="#1E1E2E" stroke="#FFFFFF" stroke-width="2" />
</svg> 